<svg xmlns="http://www.w3.org/2000/svg" width="612.02" height="612.02"><path d="M592.884 306.01c0-79.212-32.114-150.933-84.013-202.851-51.918-51.918-123.641-84.033-202.852-84.033s-150.933 32.115-202.851 84.033C51.271 155.057 19.135 226.798 19.135 306.01s32.115 150.934 84.033 202.853c51.898 51.918 123.639 84.032 202.851 84.032s150.935-32.114 202.853-84.032c51.898-51.921 84.012-123.641 84.012-202.853zM522.378 89.631c55.385 55.365 89.632 131.868 89.632 216.379 0 84.491-34.267 161.015-89.611 216.379-55.385 55.364-131.888 89.631-216.379 89.631-84.491 0-161.014-34.267-216.378-89.631C34.257 467.004.01 390.501.01 306.01c0-84.491 34.247-161.014 89.631-216.378C145.006 34.247 221.509 0 306.02 0s161.013 34.267 216.358 89.631z"/><path d="M334.688 306.01c-5.278 0-9.562-4.283-9.562-9.562 0-5.279 4.284-9.563 9.562-9.563 13.208 0 25.183-5.359 33.828-13.986l-.02-.02c8.646-8.646 14.005-20.6 14.005-33.769a47.826 47.826 0 0 0-13.985-33.848l-.02.02c-8.646-8.666-20.62-14.025-33.81-14.025H219.955c-5.28 0-9.563-4.283-9.563-9.563 0-5.26 4.283-9.563 9.563-9.563h114.734c18.469 0 35.224 7.511 47.336 19.604l-.021.02.021.02c12.094 12.113 19.604 28.868 19.604 47.316 0 18.468-7.511 35.203-19.604 47.316l-.021-.02-.021.02c-12.112 12.092-28.846 19.603-47.295 19.603z"/><path d="M334.748 306.01c-5.279 0-9.563-4.283-9.563-9.562 0-5.279 4.283-9.563 9.563-9.563 23.748 0 45.304 9.643 60.862 25.202l.559.618c15.241 15.539 24.645 36.797 24.645 60.226 0 23.729-9.643 45.244-25.222 60.823l-.021.021.021.02c-15.56 15.561-37.076 25.222-60.844 25.222H219.974c-5.279 0-9.563-4.282-9.563-9.562s4.283-9.563 9.563-9.563h114.774c18.468 0 35.203-7.511 47.315-19.622l.021.02c12.093-12.112 19.604-28.888 19.604-47.376 0-18.249-7.291-34.784-19.064-46.817l-.538-.498c-12.135-12.078-28.87-19.589-47.338-19.589z"/><path d="M296.497 306.01c-5.279 0-9.563-4.283-9.563-9.562 0-5.279 4.283-9.563 9.563-9.563h38.211c5.278 0 9.562 4.283 9.562 9.563s-4.283 9.562-9.562 9.562h-38.211zm-47.874-124.317c0-5.26 4.283-9.563 9.563-9.563s9.563 4.283 9.563 9.563v267.759c0 5.279-4.283 9.562-9.563 9.562-5.279 0-9.563-4.282-9.563-9.562V181.693zm19.146-57.377c0-5.279 4.283-9.563 9.563-9.563s9.563 4.284 9.563 9.563v57.396c0 5.28-4.303 9.563-9.563 9.563-5.279 0-9.563-4.283-9.563-9.563v-57.396zm0 325.176c0-5.28 4.283-9.563 9.563-9.563s9.563 4.283 9.563 9.563v57.377c0 5.279-4.303 9.562-9.563 9.562-5.279 0-9.563-4.282-9.563-9.562v-57.377zm57.396-325.176c0-5.279 4.282-9.563 9.562-9.563 5.279 0 9.563 4.284 9.563 9.563v57.396c0 5.28-4.283 9.563-9.563 9.563s-9.562-4.283-9.562-9.563v-57.396zm0 325.176c0-5.28 4.282-9.563 9.562-9.563 5.279 0 9.563 4.283 9.563 9.563v57.377c0 5.279-4.283 9.562-9.563 9.562s-9.562-4.282-9.562-9.562v-57.377z"/></svg>