<?xml version="1.0" encoding="iso-8859-1"?>
<!-- Generator: Adobe Illustrator 16.0.0, SVG Export Plug-In . SVG Version: 6.00 Build 0)  -->
<!DOCTYPE svg PUBLIC "-//W3C//DTD SVG 1.1//EN" "http://www.w3.org/Graphics/SVG/1.1/DTD/svg11.dtd">
<svg version="1.1" id="Capa_1" xmlns="http://www.w3.org/2000/svg" xmlns:xlink="http://www.w3.org/1999/xlink" x="0px" y="0px"
	 width="612.02px" height="612.02px" viewBox="0 0 612.02 612.02" style="enable-background:new 0 0 612.02 612.02;"
	 xml:space="preserve">
<g>
	<g>
		<g>
			<path d="M592.884,306.01c0-79.212-32.114-150.933-84.013-202.851C456.953,51.241,385.23,19.126,306.019,19.126
				s-150.933,32.115-202.851,84.033C51.271,155.057,19.135,226.798,19.135,306.01s32.115,150.934,84.033,202.853
				c51.898,51.918,123.639,84.032,202.851,84.032s150.935-32.114,202.853-84.032C560.77,456.942,592.884,385.222,592.884,306.01
				L592.884,306.01z M522.378,89.631c55.385,55.365,89.632,131.868,89.632,216.379c0,84.491-34.267,161.015-89.611,216.379
				c-55.385,55.364-131.888,89.631-216.379,89.631c-84.491,0-161.014-34.267-216.378-89.631
				C34.257,467.004,0.01,390.501,0.01,306.01c0-84.491,34.247-161.014,89.631-216.378C145.006,34.247,221.509,0,306.02,0
				C390.531,0,467.033,34.267,522.378,89.631z"/>
			<path d="M334.688,306.01c-5.278,0-9.562-4.283-9.562-9.562c0-5.279,4.284-9.563,9.562-9.563c13.208,0,25.183-5.359,33.828-13.986
				l-0.02-0.02c8.646-8.646,14.005-20.6,14.005-33.769c0-13.208-5.358-25.202-13.985-33.848l-0.02,0.02
				c-8.646-8.666-20.62-14.025-33.81-14.025H219.955c-5.28,0-9.563-4.283-9.563-9.563c0-5.26,4.283-9.563,9.563-9.563h114.734
				c18.469,0,35.224,7.511,47.336,19.604l-0.021,0.02l0.021,0.02c12.094,12.113,19.604,28.868,19.604,47.316
				c0,18.468-7.511,35.203-19.604,47.316l-0.021-0.02l-0.021,0.02C369.871,298.499,353.137,306.01,334.688,306.01z"/>
			<path d="M334.748,306.01c-5.279,0-9.563-4.283-9.563-9.562c0-5.279,4.283-9.563,9.563-9.563c23.748,0,45.304,9.643,60.862,25.202
				l0.559,0.618c15.241,15.539,24.645,36.797,24.645,60.226c0,23.729-9.643,45.244-25.222,60.823l-0.021,0.021l0.021,0.02
				c-15.56,15.561-37.076,25.222-60.844,25.222H219.974c-5.279,0-9.563-4.282-9.563-9.562s4.283-9.563,9.563-9.563h114.774
				c18.468,0,35.203-7.511,47.315-19.622l0.021,0.02c12.093-12.112,19.604-28.888,19.604-47.376
				c0-18.249-7.291-34.784-19.064-46.817l-0.538-0.498C369.951,313.521,353.216,306.01,334.748,306.01z"/>
			<path d="M296.497,306.01c-5.279,0-9.563-4.283-9.563-9.562c0-5.279,4.283-9.563,9.563-9.563h38.211
				c5.278,0,9.562,4.283,9.562,9.563c0,5.28-4.283,9.562-9.562,9.562H296.497z"/>
			<path d="M248.623,181.693c0-5.26,4.283-9.563,9.563-9.563c5.28,0,9.563,4.283,9.563,9.563v267.759
				c0,5.279-4.283,9.562-9.563,9.562c-5.279,0-9.563-4.282-9.563-9.562V181.693L248.623,181.693z"/>
			<path d="M267.769,124.316c0-5.279,4.283-9.563,9.563-9.563c5.28,0,9.563,4.284,9.563,9.563v57.396
				c0,5.28-4.303,9.563-9.563,9.563c-5.279,0-9.563-4.283-9.563-9.563V124.316z"/>
			<path d="M267.769,449.492c0-5.28,4.283-9.563,9.563-9.563c5.28,0,9.563,4.283,9.563,9.563v57.377
				c0,5.279-4.303,9.562-9.563,9.562c-5.279,0-9.563-4.282-9.563-9.562V449.492z"/>
			<path d="M325.165,124.316c0-5.279,4.282-9.563,9.562-9.563c5.279,0,9.563,4.284,9.563,9.563v57.396
				c0,5.28-4.283,9.563-9.563,9.563s-9.562-4.283-9.562-9.563V124.316z"/>
			<path d="M325.165,449.492c0-5.28,4.282-9.563,9.562-9.563c5.279,0,9.563,4.283,9.563,9.563v57.377
				c0,5.279-4.283,9.562-9.563,9.562s-9.562-4.282-9.562-9.562V449.492z"/>
		</g>
	</g>
</g>
<g>
</g>
<g>
</g>
<g>
</g>
<g>
</g>
<g>
</g>
<g>
</g>
<g>
</g>
<g>
</g>
<g>
</g>
<g>
</g>
<g>
</g>
<g>
</g>
<g>
</g>
<g>
</g>
<g>
</g>
</svg>
