<svg xmlns="http://www.w3.org/2000/svg" viewBox="0 0 511.985 511.985"><path d="M511.39 82.561a10.668 10.668 0 0 0-8.891-7.078l-45.873-5.094c3.578-4.187 3.406-10.5-.562-14.468-3.969-3.968-10.281-4.148-14.469-.555l-5.094-45.881a10.657 10.657 0 0 0-7.078-8.882 10.682 10.682 0 0 0-11.078 2.523l-69.278 69.286a233.413 233.413 0 0 0-23.062-11.304c-28.938-12.234-59.678-18.445-91.349-18.445-31.679 0-62.404 6.211-91.341 18.445-27.944 11.82-53.045 28.741-74.591 50.288-21.546 21.546-38.468 46.639-50.28 74.583C6.203 214.916 0 245.649 0 277.32c0 31.688 6.203 62.42 18.445 91.357 11.812 27.936 28.733 53.029 50.28 74.576 21.546 21.545 46.647 38.467 74.591 50.295 28.937 12.234 59.662 18.436 91.341 18.436 31.671 0 62.411-6.201 91.349-18.436 27.936-11.828 53.029-28.75 74.575-50.295 21.562-21.547 38.468-46.641 50.296-74.576 12.233-28.938 18.437-59.67 18.437-91.357 0-31.671-6.203-62.404-18.437-91.341a236.887 236.887 0 0 0-11.297-23.062l69.279-69.287a10.676 10.676 0 0 0 2.531-11.069zm-150.683 8.374l57.045-57.037 3.922 35.312c-10.343 4.281-28.107 16.203-63.451 46.764l2.484-25.039zm51.562 8.774c-9.219 12.718-25.875 33.397-55.984 66.716-27.107 30.015-54.123 58.1-63.123 67.381h-14.983v-14.992c9.266-8.984 37.327-35.983 67.326-63.084 33.358-30.124 54.045-46.795 66.764-56.021zM227.11 284.867a10.661 10.661 0 0 0 7.547 3.125c2.727 0 5.461-1.047 7.539-3.125l29.726-29.726h22.756a63.696 63.696 0 0 1 3.984 22.179c0 35.297-28.717 63.998-64.005 63.998s-63.998-28.701-63.998-63.998c0-35.288 28.71-63.998 63.998-63.998a63.677 63.677 0 0 1 22.179 3.977v22.757l-29.726 29.725c-4.164 4.164-4.164 10.93 0 15.086zm41.03-86.021a84.837 84.837 0 0 0-33.483-6.851c-47.053 0-85.333 38.28-85.333 85.325 0 47.061 38.28 85.342 85.333 85.342s85.333-38.281 85.333-85.342c0-11.875-2.438-23.194-6.859-33.483a2965.196 2965.196 0 0 0 38.562-40.803c13.687 21.492 21.624 46.983 21.624 74.287 0 76.467-62.201 138.668-138.659 138.668s-138.66-62.201-138.66-138.668c0-76.458 62.201-138.66 138.66-138.66 27.312 0 52.803 7.938 74.286 21.625a3150.336 3150.336 0 0 0-40.804 38.56zm179.846 78.474c0 56.983-22.187 110.559-62.482 150.856-40.296 40.295-93.857 62.482-150.847 62.482-56.982 0-110.551-22.188-150.847-62.482-40.288-40.297-62.482-93.873-62.482-150.855 0-56.975 22.194-110.551 62.482-150.839C124.105 86.186 177.674 64 234.657 64c37.233 0 73.021 9.484 104.582 27.296l-4.499 45.428c-.5.453-1 .898-1.516 1.359-2.688 2.43-5.375 4.859-8.047 7.281-26.438-18.218-57.725-28.039-90.521-28.039-42.741 0-82.919 16.648-113.137 46.866S74.661 234.587 74.661 277.32c0 42.75 16.64 82.92 46.858 113.137 30.218 30.219 70.396 46.859 113.137 46.859 42.74 0 82.911-16.641 113.129-46.859 30.233-30.217 46.874-70.387 46.874-113.137 0-32.796-9.828-64.084-28.047-90.521 2.875-3.156 5.766-6.344 8.641-9.554l45.436-4.5c17.812 31.569 27.297 67.342 27.297 104.575zm-26.937-126.051l-25.076 2.484c12.593-14.578 22.795-27.069 30.42-37.264 6.812-9.109 11.562-16.335 14.531-22.109a50.87 50.87 0 0 0 1.906-4.062l35.248 3.922-57.029 57.029z"/></svg>