<?xml version="1.0" encoding="iso-8859-1"?>
<!-- Generator: Adobe Illustrator 19.0.0, SVG Export Plug-In . SVG Version: 6.00 Build 0)  -->
<svg version="1.1" id="Layer_1" xmlns="http://www.w3.org/2000/svg" xmlns:xlink="http://www.w3.org/1999/xlink" x="0px" y="0px"
	 viewBox="0 0 511.985 511.985" style="enable-background:new 0 0 511.985 511.985;" xml:space="preserve">
<g>
	<g>
		<path d="M511.39,82.561c-1.359-3.875-4.812-6.625-8.891-7.078l-45.873-5.094c3.578-4.187,3.406-10.5-0.562-14.468
			c-3.969-3.968-10.281-4.148-14.469-0.555l-5.094-45.881c-0.453-4.07-3.203-7.531-7.078-8.882
			c-3.859-1.359-8.172-0.375-11.078,2.523l-69.278,69.286c-7.453-4.171-15.14-7.953-23.062-11.304
			c-28.938-12.234-59.678-18.445-91.349-18.445c-31.679,0-62.404,6.211-91.341,18.445c-27.944,11.82-53.045,28.741-74.591,50.288
			c-21.546,21.546-38.468,46.639-50.28,74.583C6.203,214.916,0,245.649,0,277.32c0,31.688,6.203,62.42,18.445,91.357
			c11.812,27.936,28.733,53.029,50.28,74.576c21.546,21.545,46.647,38.467,74.591,50.295c28.937,12.234,59.662,18.436,91.341,18.436
			c31.671,0,62.411-6.201,91.349-18.436c27.936-11.828,53.029-28.75,74.575-50.295c21.562-21.547,38.468-46.641,50.296-74.576
			c12.233-28.938,18.437-59.67,18.437-91.357c0-31.671-6.203-62.404-18.437-91.341c-3.359-7.929-7.141-15.617-11.297-23.062
			l69.279-69.287C511.765,90.732,512.734,86.428,511.39,82.561z M360.707,90.935l57.045-57.037l3.922,35.312
			c-10.343,4.281-28.107,16.203-63.451,46.764L360.707,90.935z M412.269,99.709c-9.219,12.718-25.875,33.397-55.984,66.716
			c-27.107,30.015-54.123,58.1-63.123,67.381h-14.983v-14.992c9.266-8.984,37.327-35.983,67.326-63.084
			C378.863,125.606,399.55,108.935,412.269,99.709z M227.11,284.867c2.086,2.078,4.812,3.125,7.547,3.125
			c2.727,0,5.461-1.047,7.539-3.125l29.726-29.726h22.756c2.562,6.913,3.984,14.382,3.984,22.179
			c0,35.297-28.717,63.998-64.005,63.998c-35.288,0-63.998-28.701-63.998-63.998c0-35.288,28.71-63.998,63.998-63.998
			c7.796,0,15.265,1.414,22.179,3.977v22.757l-29.726,29.725C222.946,273.945,222.946,280.711,227.11,284.867z M268.14,198.846
			c-10.289-4.406-21.601-6.851-33.483-6.851c-47.053,0-85.333,38.28-85.333,85.325c0,47.061,38.28,85.342,85.333,85.342
			c47.053,0,85.333-38.281,85.333-85.342c0-11.875-2.438-23.194-6.859-33.483c8.359-8.679,22.594-23.569,38.562-40.803
			c13.687,21.492,21.624,46.983,21.624,74.287c0,76.467-62.201,138.668-138.659,138.668s-138.66-62.201-138.66-138.668
			c0-76.458,62.201-138.66,138.66-138.66c27.312,0,52.803,7.938,74.286,21.625C291.724,176.261,276.835,190.479,268.14,198.846z
			 M447.986,277.32c0,56.983-22.187,110.559-62.482,150.856c-40.296,40.295-93.857,62.482-150.847,62.482
			c-56.982,0-110.551-22.188-150.847-62.482c-40.288-40.297-62.482-93.873-62.482-150.855c0-56.975,22.194-110.551,62.482-150.839
			C124.105,86.186,177.674,64,234.657,64c37.233,0,73.021,9.484,104.582,27.296l-4.499,45.428c-0.5,0.453-1,0.898-1.516,1.359
			c-2.688,2.43-5.375,4.859-8.047,7.281c-26.438-18.218-57.725-28.039-90.521-28.039c-42.741,0-82.919,16.648-113.137,46.866
			S74.661,234.587,74.661,277.32c0,42.75,16.64,82.92,46.858,113.137c30.218,30.219,70.396,46.859,113.137,46.859
			c42.74,0,82.911-16.641,113.129-46.859c30.233-30.217,46.874-70.387,46.874-113.137c0-32.796-9.828-64.084-28.047-90.521
			c2.875-3.156,5.766-6.344,8.641-9.554l45.436-4.5C438.501,204.314,447.986,240.087,447.986,277.32z M421.049,151.269
			l-25.076,2.484c12.593-14.578,22.795-27.069,30.42-37.264c6.812-9.109,11.562-16.335,14.531-22.109
			c0.484-0.938,1.203-2.352,1.906-4.062l35.248,3.922L421.049,151.269z"/>
	</g>
</g>
<g>
</g>
<g>
</g>
<g>
</g>
<g>
</g>
<g>
</g>
<g>
</g>
<g>
</g>
<g>
</g>
<g>
</g>
<g>
</g>
<g>
</g>
<g>
</g>
<g>
</g>
<g>
</g>
<g>
</g>
</svg>
