<svg xmlns="http://www.w3.org/2000/svg" viewBox="0 0 442.001 442.001"><path d="M440.674 47.608a9.97 9.97 0 0 0-6.265-4.729l-.011-.003-.015-.003c-.006-.002-.012-.005-.017-.004a8.867 8.867 0 0 0-.509-.11c-.008.001-.011-.002-.017-.003l-.014-.002a9.961 9.961 0 0 0-5.346.47L6.637 193.853A9.999 9.999 0 0 0 5.4 212.15l86.071 44.587 29.97 134.683a9.919 9.919 0 0 0 1.579 3.693c.376.542.804 1.044 1.275 1.499a9.982 9.982 0 0 0 6.94 2.804h.05a9.966 9.966 0 0 0 6.733-2.647l81.234-74.879 89.166 44.997a10.002 10.002 0 0 0 13.821-5.295L441.262 56.36a9.98 9.98 0 0 0-.588-8.752zM35.003 204.961L338.477 96.599 99.882 238.57l-64.879-33.609zm102.023 64.191l-.004.007-.004.008a.12.12 0 0 0-.008.016v.001l-.004.008a.008.008 0 0 1-.002.004l-.005.01-.002.004-.006.011-.001.002a9.96 9.96 0 0 0-1.002 3.438l-7.443 58.604-16.992-76.366 183.985-109.478L139.987 265.65a9.958 9.958 0 0 0-2.961 3.502zm7.586 94.337l9.46-74.492 46.109 23.269-55.569 51.223zm162.99-19.415l-85.31-43.051a9.839 9.839 0 0 0-.435-.22l-57.261-28.896L409.581 82.552 307.602 344.074z"/></svg>