<svg xmlns="http://www.w3.org/2000/svg" viewBox="0 0 512 512"><path d="M511.981 118.509c-.135-2.956-1.892-5.726-4.565-7.04l-159.24-79.62a8.295 8.295 0 0 0-10.664 2.898L229.916 200.282l-55.413-85.891a8.382 8.382 0 0 0-3.259-2.922l-159.24-79.62C6.582 29.138 0 33.218 0 39.268v79.621a8.293 8.293 0 0 0 8.294 8.294 8.293 8.293 0 0 0 8.294-8.294V52.687l142.652 71.326v335.32L16.587 388.008V154.277a8.293 8.293 0 0 0-8.294-8.294 8.293 8.293 0 0 0-8.294 8.294v238.857a8.293 8.293 0 0 0 4.585 7.418l159.24 79.62c5.427 2.714 12.003-1.375 12.003-7.418V318.087l324.17 162.085c5.427 2.714 12.003-1.375 12.003-7.418V118.888c0-.128-.013-.252-.019-.379zM175.827 299.541v-152.5l145.239 225.12-145.239-72.62zm319.586 159.794l-139.34-69.671 108.576-186.993a8.295 8.295 0 0 0-3.009-11.337 8.296 8.296 0 0 0-11.337 3.009L344.094 377.258 239.77 215.555 347.383 49.998 492.1 122.357l-26.387 45.446a8.295 8.295 0 0 0 3.009 11.337 8.297 8.297 0 0 0 11.337-3.009l15.354-26.443v309.647z"/></svg>