<svg xmlns="http://www.w3.org/2000/svg" viewBox="0 0 512 512"><path d="M473.043 300.522h-2.133a66.84 66.84 0 0 0 2.133-16.696c0-36.824-29.959-66.783-66.783-66.783s-66.783 29.959-66.783 66.783c0 5.683.737 11.285 2.133 16.696h-2.133c-9.22 0-16.696 7.475-16.696 16.696v18.384a83.705 83.705 0 0 0-16.696-1.688h-33.391v-16.696c0-.405-.032-.801-.06-1.199 39.925-23.119 66.843-66.31 66.843-115.671v-66.783C339.478 59.917 279.561 0 205.913 0S72.348 59.917 72.348 133.565v66.783c0 49.337 26.89 92.507 66.783 115.635v17.93H105.74c-46.03 0-83.478 37.448-83.478 83.478v77.913c0 9.22 7.475 16.696 16.696 16.696h400.696c9.22 0 16.696-7.475 16.696-16.696v-94.609h16.696c9.22 0 16.696-7.475 16.696-16.696v-66.783c-.003-9.219-7.478-16.694-16.699-16.694zM55.652 478.609v-61.217c0-27.618 22.469-50.087 50.087-50.087h3.414l25.686 111.304H55.652zM205.913 33.391c55.236 0 100.174 44.938 100.174 100.174-27.618 0-50.087-22.469-50.087-50.087 0-9.22-7.475-16.696-16.696-16.696-9.22 0-16.696 7.475-16.696 16.696 0 27.618-22.469 50.087-50.087 50.087h-66.783c.001-55.236 44.939-100.174 100.175-100.174zM105.739 200.348v-33.391h66.783c27.277 0 51.539-13.149 66.783-33.444 15.243 20.294 39.505 33.444 66.783 33.444v33.391c0 55.236-44.938 100.174-100.174 100.174s-100.175-44.938-100.175-100.174zm133.565 129.339v15.357l-33.391 44.522-33.391-44.522v-15.357a133.347 133.347 0 0 0 33.391 4.226c11.526 0 22.715-1.468 33.391-4.226zm3.414 148.922h-73.611l-25.686-111.304h4.056l45.078 60.104c6.678 8.904 20.047 8.888 26.713 0l45.079-60.104h4.056l-25.685 111.304zm163.543-228.174c18.412 0 33.391 14.979 33.391 33.391a33.337 33.337 0 0 1-4.479 16.696h-57.826a33.346 33.346 0 0 1-4.478-16.696c.001-18.412 14.98-33.391 33.392-33.391zm-50.087 228.174h-79.186l25.686-111.304h3.414c5.717 0 11.364.991 16.696 2.871V384c0 9.22 7.475 16.696 16.696 16.696h16.696v77.913zm66.783 0h-33.391v-77.913h33.391v77.913zm33.391-111.305H356.174v-33.391h100.174v33.391z"/></svg>