<?xml version="1.0" encoding="iso-8859-1"?>
<!-- Generator: Adobe Illustrator 19.0.0, SVG Export Plug-In . SVG Version: 6.00 Build 0)  -->
<svg version="1.1" id="Layer_1" xmlns="http://www.w3.org/2000/svg" xmlns:xlink="http://www.w3.org/1999/xlink" x="0px" y="0px"
	 viewBox="0 0 512 512" style="enable-background:new 0 0 512 512;" xml:space="preserve">
<g>
	<g>
		<path d="M473.043,300.522h-2.133c1.395-5.41,2.133-11.012,2.133-16.696c0-36.824-29.959-66.783-66.783-66.783
			s-66.783,29.959-66.783,66.783c0,5.683,0.737,11.285,2.133,16.696h-2.133c-9.22,0-16.696,7.475-16.696,16.696v18.384
			c-5.472-1.114-11.066-1.688-16.696-1.688h-33.391v-16.696c0-0.405-0.032-0.801-0.06-1.199
			c39.925-23.119,66.843-66.31,66.843-115.671v-66.783C339.478,59.917,279.561,0,205.913,0S72.348,59.917,72.348,133.565v66.783
			c0,49.337,26.89,92.507,66.783,115.635v17.93h-33.391c-46.03,0-83.478,37.448-83.478,83.478v77.913
			c0,9.22,7.475,16.696,16.696,16.696c10.561,0,387.061,0,400.696,0c9.22,0,16.696-7.475,16.696-16.696v-94.609h16.696
			c9.22,0,16.696-7.475,16.696-16.696v-66.783C489.739,307.997,482.264,300.522,473.043,300.522z M55.652,478.609v-61.217
			c0-27.618,22.469-50.087,50.087-50.087h3.414l25.686,111.304H55.652z M205.913,33.391c55.236,0,100.174,44.938,100.174,100.174
			c-27.618,0-50.087-22.469-50.087-50.087c0-9.22-7.475-16.696-16.696-16.696c-9.22,0-16.696,7.475-16.696,16.696
			c0,27.618-22.469,50.087-50.087,50.087h-66.783C105.739,78.329,150.677,33.391,205.913,33.391z M105.739,200.348v-33.391h66.783
			c27.277,0,51.539-13.149,66.783-33.444c15.243,20.294,39.505,33.444,66.783,33.444v33.391
			c0,55.236-44.938,100.174-100.174,100.174S105.739,255.584,105.739,200.348z M239.304,329.687v15.357l-33.391,44.522
			l-33.391-44.522v-15.357c10.676,2.758,21.866,4.226,33.391,4.226C217.439,333.913,228.628,332.445,239.304,329.687z
			 M242.718,478.609h-73.611l-25.686-111.304h4.056l45.078,60.104c6.678,8.904,20.047,8.888,26.713,0l45.079-60.104h4.056
			L242.718,478.609z M406.261,250.435c18.412,0,33.391,14.979,33.391,33.391c0,5.915-1.567,11.658-4.479,16.696h-57.826
			c-2.911-5.038-4.478-10.781-4.478-16.696C372.87,265.414,387.849,250.435,406.261,250.435z M356.174,478.609h-79.186
			l25.686-111.304h3.414c5.717,0,11.364,0.991,16.696,2.871V384c0,9.22,7.475,16.696,16.696,16.696h16.696V478.609z
			 M422.957,478.609h-33.391v-77.913h33.391V478.609z M456.348,367.304c-16.473,0-90.017,0-100.174,0v-33.391h100.174V367.304z"/>
	</g>
</g>
<g>
</g>
<g>
</g>
<g>
</g>
<g>
</g>
<g>
</g>
<g>
</g>
<g>
</g>
<g>
</g>
<g>
</g>
<g>
</g>
<g>
</g>
<g>
</g>
<g>
</g>
<g>
</g>
<g>
</g>
</svg>
