<svg xmlns="http://www.w3.org/2000/svg" viewBox="0 0 511.998 511.998"><path d="M489.25 335.681c-11.137-13.347-23.719-25.264-35.888-36.789-4.276-4.051-8.7-8.24-12.96-12.399l-.003-.003c-5.73-5.589-8.535-9.556-8.828-12.486-.288-2.88 1.68-7.153 6.207-13.469 6.769-9.5 13.984-19.016 20.964-28.218 6.204-8.18 12.618-16.639 18.766-25.146l1.38-1.91c11.995-16.602 24.397-33.769 31.043-54.689 1.898-5.998 3.869-14.874-.885-22.666-4.756-7.794-13.573-10.104-19.787-11.162-3.035-.52-5.915-.563-8.595-.563l-77.806-.069c-13.452-.224-22.784 6.152-27.87 18.956-4.07 10.226-8.877 22.077-14.446 33.319-10.655 21.703-24.194 46.7-43.818 67.527l-.872.928c-1.336 1.426-3.519 3.758-4.64 4.293-2.126-1.336-4.579-8.977-4.467-12.98.003-.099.004-.197.004-.295l-.069-89.903c0-.457-.032-.914-.093-1.367-1.745-12.826-5.147-25.684-25.447-29.69a10.164 10.164 0 0 0-1.975-.193H198.23c-15.227 0-23.281 6.973-29.738 14.533-1.869 2.204-6.835 8.056-4.305 15.21 2.56 7.239 10.188 8.684 12.692 9.158 8.82 1.674 13.381 6.659 14.793 16.189 2.791 18.517 3.133 38.326 1.078 62.309-.573 6.439-1.639 11.333-3.359 15.403-.476 1.127-.894 1.825-1.186 2.236-.466-.188-1.191-.548-2.195-1.235-6.198-4.241-10.869-10.834-15.386-17.208-18.042-25.473-33.218-53.607-46.401-86.022-5.429-13.283-15.635-20.702-28.719-20.894-24.928-.415-47.983-.405-70.459.032-10.601.184-18.035 3.521-22.099 9.92-4.069 6.411-3.92 14.585.444 24.299 31.196 69.37 59.522 119.834 91.842 163.628 22.757 30.832 45.665 52.234 72.092 67.354 27.766 15.885 59.08 23.67 95.408 23.669 4.131 0 8.334-.101 12.593-.304 22.413-1.021 31.532-9.936 32.527-31.765.558-11.537 1.842-20.883 6.297-29.003 1.246-2.273 2.652-3.797 3.76-4.076 1.178-.294 3.267.427 5.59 1.936 4.247 2.758 7.904 6.498 10.911 9.781 3.048 3.337 6.128 6.784 9.109 10.117 6.343 7.097 12.902 14.436 19.774 21.436 15.543 15.844 33.461 23.11 53.278 21.588l71.205.033h.004c.226 0 .452-.007.678-.022 8.213-.547 15.314-5.094 19.484-12.478 5.021-8.892 4.945-20.155-.207-30.14-5.376-10.381-12.351-19.316-18.485-26.71zm.931 46.821c-.982 1.739-2.193 2.056-2.818 2.132l-71.19-.033h-.007a9.82 9.82 0 0 0-.841.035c-14.025 1.168-25.946-3.762-37.474-15.512-6.539-6.662-12.937-13.819-19.124-20.741-3.015-3.373-6.132-6.862-9.264-10.29-3.884-4.242-8.685-9.117-14.854-13.123-9.236-5.995-16.89-5.814-21.683-4.606-4.743 1.195-11.485 4.605-16.66 14.049-6.704 12.219-8.183 25.401-8.785 37.854-.348 7.616-1.636 9.628-2.174 10.139-.705.67-3.061 1.848-10.922 2.207-37.776 1.776-69.478-4.989-96.931-20.696-23.882-13.664-44.794-33.291-65.809-61.762-31.425-42.579-59.075-91.887-89.65-159.877-1.108-2.463-1.45-4-1.549-4.823.78-.256 2.304-.593 4.976-.642 22.248-.431 45.062-.443 69.765-.031 3.382.05 7.233 1.065 10.149 8.2 13.774 33.869 29.685 63.344 48.645 90.112 5.034 7.105 11.3 15.949 20.509 22.25 8.435 5.776 15.28 5.5 19.538 4.252 4.26-1.249 10.172-4.719 14.154-14.147 2.569-6.077 4.122-12.92 4.891-21.566 2.197-25.653 1.807-46.981-1.225-67.098-2.137-14.413-9.579-24.825-21.302-30.142 2.082-1.084 4.428-1.536 7.686-1.536h79.877c4.494 1.008 5.384 2.192 5.689 2.597 1.294 1.721 2.034 5.792 2.486 8.973l.068 89.074c-.18 8.539 3.97 27.477 18.1 32.67.116.043.233.083.35.121 12.864 4.204 21.373-4.877 25.941-9.756l.814-.866c21.496-22.815 35.971-49.473 47.28-72.508 5.894-11.895 10.886-24.199 15.107-34.805 2.112-5.319 4.034-6.195 8.62-6.098.063.002.125.002.189.002l77.905.069c1.812 0 3.703.021 5.17.272 3.712.632 5.241 1.402 5.745 1.721.052.591.04 2.291-1.082 5.839-5.651 17.789-16.572 32.903-28.133 48.905l-1.381 1.913c-6.007 8.312-12.35 16.675-18.483 24.764-7.07 9.321-14.378 18.958-21.307 28.684-14.814 20.669-13.512 34.385 4.975 52.417 4.369 4.265 8.847 8.507 13.179 12.609 12.281 11.633 23.882 22.62 34.235 35.026 5.42 6.534 11.564 14.381 16.042 23.029 2.336 4.527 1.763 8.617.563 10.743z"/><path d="M74.382 169.635a1088.422 1088.422 0 0 1-4.454-8.914c-2.496-5.049-8.608-7.123-13.661-4.627-5.05 2.495-7.122 8.611-4.627 13.661 1.499 3.034 3.012 6.062 4.537 9.081a10.199 10.199 0 0 0 13.702 4.502c5.029-2.542 7.044-8.676 4.503-13.703zm63.971 105.806c-16.724-22.659-32.37-47.27-47.83-75.239-2.725-4.93-8.931-6.716-13.86-3.992-4.929 2.725-6.717 8.931-3.992 13.86 15.896 28.756 32.013 54.102 49.271 77.485 2 2.71 5.087 4.143 8.214 4.143a10.14 10.14 0 0 0 6.048-1.995c4.531-3.344 5.493-9.729 2.149-14.262z"/></svg>